<svg width="125" height="26" viewBox="0 0 125 26" fill="none" xmlns="http://www.w3.org/2000/svg">
<path d="M26.7445 -1.21247e-07C28.2764 -5.4284e-08 29.5183 1.24187 29.5183 2.7738C29.5183 4.30573 28.2764 5.54761 26.7445 5.54761L3.27388 5.54761C1.74195 5.54761 0.500076 4.30573 0.500076 2.7738C0.500076 1.24187 1.74195 -1.21414e-06 3.27388 -1.14718e-06L26.7445 -1.21247e-07Z" fill="#84CC16"/>
<path d="M19.9166 9.60205C21.4486 9.60205 22.6904 10.8439 22.6904 12.3759C22.6904 13.9078 21.4486 15.1497 19.9166 15.1497L10.1016 15.1497C8.56971 15.1497 7.32783 13.9078 7.32783 12.3759C7.32784 10.8439 8.56971 9.60205 10.1016 9.60205L19.9166 9.60205Z" fill="#84CC16"/>
<path d="M15.0093 19.2036C16.5412 19.2036 17.7831 20.4455 17.7831 21.9774C17.7831 23.5093 16.5412 24.7512 15.0093 24.7512C13.4774 24.7512 12.2355 23.5093 12.2355 21.9774C12.2355 20.4455 13.4774 19.2036 15.0093 19.2036Z" fill="#84CC16"/>
<path d="M44.1434 21.2453C43.0533 21.2453 42.045 21.0477 41.1185 20.6525C40.2055 20.2574 39.4016 19.7055 38.7067 18.997C38.0254 18.2884 37.494 17.4572 37.1124 16.5034C36.7309 15.5496 36.5401 14.5072 36.5401 13.3763C36.5401 12.2453 36.7241 11.2029 37.092 10.2491C37.4735 9.28167 38.0049 8.45049 38.6862 7.75556C39.3811 7.04701 40.1919 6.50197 41.1185 6.12045C42.045 5.7253 43.0533 5.52772 44.1434 5.52772C45.2335 5.52772 46.2078 5.71167 47.0662 6.07957C47.9383 6.44747 48.6741 6.93801 49.2736 7.55117C49.8731 8.15072 50.3024 8.81158 50.5613 9.53375L48.0677 10.6988C47.7816 9.93572 47.2978 9.30892 46.6165 8.81839C45.9352 8.31423 45.1109 8.06215 44.1434 8.06215C43.1896 8.06215 42.3448 8.28698 41.609 8.73663C40.8868 9.18629 40.3213 9.80627 39.9126 10.5966C39.5174 11.3869 39.3198 12.3134 39.3198 13.3763C39.3198 14.4391 39.5174 15.3725 39.9126 16.1764C40.3213 16.9667 40.8868 17.5867 41.609 18.0364C42.3448 18.486 43.1896 18.7108 44.1434 18.7108C45.1109 18.7108 45.9352 18.4656 46.6165 17.975C47.2978 17.4709 47.7816 16.8373 48.0677 16.0742L50.5613 17.2392C50.3024 17.9614 49.8731 18.6291 49.2736 19.2423C48.6741 19.8418 47.9383 20.3255 47.0662 20.6934C46.2078 21.0613 45.2335 21.2453 44.1434 21.2453ZM52.5932 21V9.88121H55.1072V12.3543L54.9028 11.9864C55.1617 11.1552 55.5636 10.5761 56.1087 10.2491C56.6673 9.92209 57.335 9.75858 58.1117 9.75858H58.7657V12.1295H57.8051C57.042 12.1295 56.4289 12.368 55.9656 12.8449C55.5023 13.3081 55.2707 13.9622 55.2707 14.807V21H52.5932ZM65.6746 21.2453C64.5845 21.2453 63.5898 20.9932 62.6905 20.489C61.8048 19.9849 61.0962 19.2968 60.5648 18.4247C60.047 17.5526 59.7882 16.5579 59.7882 15.4406C59.7882 14.3233 60.047 13.3286 60.5648 12.4565C61.0962 11.5845 61.8048 10.8963 62.6905 10.3922C63.5762 9.88803 64.5709 9.63595 65.6746 9.63595C66.7646 9.63595 67.7525 9.88803 68.6382 10.3922C69.5239 10.8963 70.2256 11.5845 70.7434 12.4565C71.2748 13.315 71.5405 14.3097 71.5405 15.4406C71.5405 16.5579 71.2748 17.5526 70.7434 18.4247C70.212 19.2968 69.5035 19.9849 68.6178 20.489C67.7321 20.9932 66.751 21.2453 65.6746 21.2453ZM65.6746 18.7926C66.2741 18.7926 66.7987 18.6495 67.2484 18.3634C67.7117 18.0772 68.0727 17.6821 68.3316 17.1779C68.6042 16.6601 68.7404 16.081 68.7404 15.4406C68.7404 14.7866 68.6042 14.2143 68.3316 13.7237C68.0727 13.2196 67.7117 12.8244 67.2484 12.5383C66.7987 12.2385 66.2741 12.0886 65.6746 12.0886C65.0614 12.0886 64.5232 12.2385 64.0599 12.5383C63.5966 12.8244 63.2287 13.2196 62.9562 13.7237C62.6973 14.2143 62.5679 14.7866 62.5679 15.4406C62.5679 16.081 62.6973 16.6601 62.9562 17.1779C63.2287 17.6821 63.5966 18.0772 64.0599 18.3634C64.5232 18.6495 65.0614 18.7926 65.6746 18.7926ZM76.1716 21L72.3495 9.88121H75.1701L77.9702 18.3225L76.9891 18.3021L79.9732 9.88121H82.3441L85.3078 18.3021L84.3267 18.3225L87.1268 9.88121H89.9474L86.1253 21H83.734L80.709 12.1908H81.6083L78.5425 21H76.1716ZM96.3866 21.2453C95.3102 21.2453 94.3496 20.9932 93.5047 20.489C92.6599 19.9712 91.9923 19.2695 91.5017 18.3838C91.0112 17.4981 90.7659 16.5171 90.7659 15.4406C90.7659 14.3505 91.0112 13.3695 91.5017 12.4974C91.9923 11.6253 92.6599 10.9304 93.5047 10.4126C94.3632 9.89484 95.317 9.63595 96.3662 9.63595C97.211 9.63595 97.9604 9.80627 98.6145 10.1469C99.2822 10.4739 99.8068 10.9372 100.188 11.5368L99.7795 12.0886V5.52772H102.457V21H99.9226V18.8539L100.209 19.3853C99.8272 19.9849 99.2958 20.4481 98.6145 20.7752C97.9332 21.0886 97.1906 21.2453 96.3866 21.2453ZM96.6728 18.7926C97.286 18.7926 97.8242 18.6495 98.2875 18.3634C98.7507 18.0772 99.1118 17.6821 99.3707 17.1779C99.6432 16.6738 99.7795 16.0947 99.7795 15.4406C99.7795 14.8002 99.6432 14.2279 99.3707 13.7237C99.1118 13.2059 98.7507 12.804 98.2875 12.5178C97.8242 12.2317 97.286 12.0886 96.6728 12.0886C96.0732 12.0886 95.535 12.2385 95.0581 12.5383C94.5812 12.8244 94.2065 13.2196 93.934 13.7237C93.6751 14.2143 93.5456 14.7866 93.5456 15.4406C93.5456 16.0947 93.6751 16.6738 93.934 17.1779C94.2065 17.6821 94.5812 18.0772 95.0581 18.3634C95.535 18.6495 96.0732 18.7926 96.6728 18.7926ZM106.236 21V12.2726H104.274V9.88121H106.236V9.51331C106.236 8.6685 106.406 7.95314 106.747 7.36722C107.101 6.76768 107.591 6.31121 108.218 5.99781C108.845 5.68442 109.588 5.52772 110.446 5.52772C110.61 5.52772 110.787 5.54134 110.977 5.5686C111.182 5.58222 111.352 5.60266 111.488 5.62991V7.93951C111.352 7.91226 111.223 7.89864 111.1 7.89864C110.991 7.88501 110.889 7.8782 110.794 7.8782C110.194 7.8782 109.731 8.01446 109.404 8.28698C109.077 8.54587 108.913 8.95465 108.913 9.51331V9.88121H111.386V12.2726H108.913V21H106.236ZM114.6 25.4966C114.301 25.4966 114.008 25.4693 113.721 25.4148C113.435 25.3739 113.176 25.2922 112.945 25.1695V22.9417C113.122 22.9826 113.333 23.0235 113.578 23.0643C113.837 23.1052 114.076 23.1257 114.294 23.1257C114.907 23.1257 115.35 22.9826 115.622 22.6964C115.908 22.4239 116.16 22.056 116.378 21.5927L117.114 19.8759L117.073 22.1241L112.229 9.88121H115.111L118.504 18.9152H117.482L120.855 9.88121H123.757L118.913 22.1241C118.627 22.8327 118.279 23.439 117.871 23.9432C117.462 24.4474 116.985 24.8289 116.44 25.0878C115.908 25.3603 115.295 25.4966 114.6 25.4966Z" fill="#0A0A0A"/>
</svg>
