<svg width="380" height="62" viewBox="0 0 380 62" fill="none" xmlns="http://www.w3.org/2000/svg">
<path d="M0 10.6885C4.38737 12.5662 8.59164 14.3409 12.7686 16.1611C16.9638 17.9894 21.4304 19.4554 24.834 22.7471C28.6934 19.067 33.9011 17.383 38.8896 15.1729C39.1503 17.4246 39.0898 16.6722 39.1514 17.3467C39.2781 19.0583 39.5817 20.9202 38.9453 22.292C38.2989 23.6848 35.9903 23.842 34.4336 24.5645C30.4179 26.4282 28.3879 29.1631 28.6182 33.1172C28.733 35.0884 28.6365 37.0685 28.668 39.0439C28.7403 43.588 31.9234 46.5759 37.2285 46.9824C38.3144 47.0656 39.1288 47.3646 39.9814 47.9268C42.4209 49.5353 44.9544 51.0402 47.4404 52.5977C47.9189 52.8974 48.543 53.0922 48.7012 53.6562C48.5368 53.8958 48.2875 53.9635 48.0303 53.96C43.4661 53.8973 38.8841 54.2974 34.3486 53.5078C26.2646 52.1005 21.1556 46.815 21.1367 39.7939C21.1302 37.3351 21.1298 34.8758 21.1279 32.417C21.1257 29.4752 19.7713 27.1502 16.8359 25.5459C13.984 23.9872 10.9036 22.822 7.93457 21.584C7.20488 22.1178 7.42493 22.6818 7.42383 23.1768C7.40489 31.695 7.38413 40.2133 7.4248 48.7314C7.4301 49.8395 7.0666 50.6311 6.06934 51.3506C4.08349 52.7833 2.19137 54.3108 0 56V10.6885ZM50 50.9551C48.6181 50.8073 47.8669 50.1032 47.0176 49.5986C42.4302 46.8734 42.4431 46.8638 42.4482 42.1279C42.455 35.9428 42.3441 29.7558 42.4932 23.5732C42.5852 19.7568 42.372 15.9471 42.4297 12.1338C42.4437 11.2099 42.7416 10.5524 43.623 10.0137C45.6646 8.7659 47.6682 7.47259 50 6V50.9551Z" fill="#9810FA"/>
<path d="M60.15 12.925C60.6833 12.825 61.3583 12.75 62.175 12.7C63.0083 12.65 63.6583 12.625 64.125 12.625C64.5917 12.625 65.1917 12.6417 65.925 12.675C66.6583 12.6917 67.3667 12.75 68.05 12.85L66.35 20.525L65.875 20.675C65.975 21.975 66.0583 23.4333 66.125 25.05C66.2083 26.65 66.275 28.2667 66.325 29.9C66.375 31.5167 66.4 32.9833 66.4 34.3V47C65.85 47.1 65.3083 47.1583 64.775 47.175C64.2417 47.2083 63.7583 47.225 63.325 47.225C62.925 47.225 62.425 47.2083 61.825 47.175C61.2417 47.1583 60.6833 47.1 60.15 47V12.925ZM69.05 27.625C68.4667 26.3583 67.9167 25.125 67.4 23.925C66.9 22.725 66.45 21.6167 66.05 20.6L62.925 16.95L68.05 12.85L77.15 32.2C77.7833 33.5833 78.375 34.925 78.925 36.225C79.475 37.5083 79.9583 38.6417 80.375 39.625L83.75 43.225L78.275 47L69.05 27.625ZM86.25 12.875V46.925C85.9 46.9917 85.4667 47.05 84.95 47.1C84.45 47.15 83.95 47.1833 83.45 47.2C82.9667 47.2167 82.5583 47.225 82.225 47.225C81.7083 47.225 81.1 47.2083 80.4 47.175C79.7 47.1583 78.9917 47.1 78.275 47L80.05 39.675L80.575 39.55C80.4583 38.1 80.3583 36.5333 80.275 34.85C80.1917 33.1667 80.1333 31.5333 80.1 29.95C80.0667 28.3667 80.05 27 80.05 25.85V16.675C80.05 15.1917 80.3333 14.1417 80.9 13.525C81.4833 12.8917 82.4333 12.575 83.75 12.575H85.9L86.25 12.875ZM113.499 47.225C112.999 47.225 112.44 47.2083 111.824 47.175C111.207 47.1583 110.624 47.1 110.074 47V35.875C110.074 35.175 110.082 34.55 110.099 34C110.115 33.45 110.124 32.8417 110.124 32.175V26.6C110.124 25.9167 110.115 25.3083 110.099 24.775C110.082 24.225 110.074 23.6 110.074 22.9V12.85C110.624 12.75 111.199 12.6917 111.799 12.675C112.415 12.6417 112.957 12.625 113.424 12.625C113.874 12.625 114.415 12.6417 115.049 12.675C115.699 12.6917 116.282 12.75 116.799 12.85V47C116.249 47.1 115.682 47.1583 115.099 47.175C114.515 47.2083 113.982 47.225 113.499 47.225ZM94.4238 47.225C93.9905 47.225 93.4488 47.2083 92.7988 47.175C92.1655 47.1583 91.5905 47.1 91.0738 47V12.85C91.5905 12.75 92.1655 12.6917 92.7988 12.675C93.4488 12.6417 93.9905 12.625 94.4238 12.625C94.8905 12.625 95.4322 12.6417 96.0488 12.675C96.6655 12.6917 97.2488 12.75 97.7988 12.85V22.9C97.7988 23.6 97.7905 24.225 97.7738 24.775C97.7572 25.3083 97.7488 25.9167 97.7488 26.6V32.175C97.7488 32.8417 97.7572 33.45 97.7738 34C97.7905 34.55 97.7988 35.175 97.7988 35.875V47C97.2488 47.1 96.6655 47.1583 96.0488 47.175C95.4322 47.2083 94.8905 47.225 94.4238 47.225ZM93.7238 32.225V26.55C94.3905 26.55 95.0655 26.5583 95.7488 26.575C96.4322 26.5917 97.0988 26.6 97.7488 26.6C97.9655 26.6 98.2405 26.6 98.5738 26.6C98.9072 26.5833 99.2488 26.575 99.5988 26.575C99.9488 26.5583 100.224 26.55 100.424 26.55H107.474C107.674 26.55 107.94 26.5583 108.274 26.575C108.624 26.575 108.974 26.5833 109.324 26.6C109.674 26.6 109.94 26.6 110.124 26.6C110.79 26.6 111.457 26.5917 112.124 26.575C112.807 26.5583 113.482 26.55 114.149 26.55V32.225C113.482 32.225 112.807 32.2167 112.124 32.2C111.457 32.1833 110.79 32.175 110.124 32.175C109.94 32.175 109.674 32.1833 109.324 32.2C108.974 32.2 108.624 32.2083 108.274 32.225C107.94 32.225 107.674 32.225 107.474 32.225H100.424C100.224 32.225 99.9488 32.225 99.5988 32.225C99.2488 32.2083 98.9072 32.2 98.5738 32.2C98.2405 32.1833 97.9655 32.175 97.7488 32.175C97.0988 32.175 96.4322 32.1833 95.7488 32.2C95.0655 32.2167 94.3905 32.225 93.7238 32.225ZM129.332 12.85C129.849 12.7667 130.482 12.7083 131.232 12.675C131.999 12.6417 132.657 12.625 133.207 12.625C133.724 12.625 134.365 12.6417 135.132 12.675C135.899 12.7083 136.532 12.775 137.032 12.875L148.007 46.575C147.54 46.8417 146.949 47.0417 146.232 47.175C145.515 47.3083 144.824 47.375 144.157 47.375C143.09 47.375 142.257 47.1333 141.657 46.65C141.074 46.1667 140.574 45.2167 140.157 43.8L135.632 28.85C135.215 27.4167 134.757 25.8167 134.257 24.05C133.774 22.2833 133.34 20.65 132.957 19.15H132.657C132.49 19.9833 132.274 20.9083 132.007 21.925C131.757 22.9417 131.49 23.95 131.207 24.95C130.94 25.9333 130.699 26.8083 130.482 27.575L124.507 47.05C124.09 47.15 123.64 47.2083 123.157 47.225C122.674 47.2583 122.165 47.275 121.632 47.275C121.099 47.275 120.524 47.2417 119.907 47.175C119.29 47.1083 118.782 47.0083 118.382 46.875L118.157 46.5L129.332 12.85ZM129.307 39.325C129.107 39.325 128.807 39.325 128.407 39.325C128.024 39.3083 127.64 39.3 127.257 39.3C126.874 39.2833 126.582 39.275 126.382 39.275H123.007L125.057 33.975H128.032C128.232 33.975 128.507 33.975 128.857 33.975C129.207 33.9583 129.565 33.95 129.932 33.95C130.299 33.9333 130.574 33.925 130.757 33.925H135.057C135.274 33.925 135.557 33.9333 135.907 33.95C136.257 33.95 136.615 33.9583 136.982 33.975C137.349 33.975 137.632 33.975 137.832 33.975H140.882L142.632 39.275H139.282C139.082 39.275 138.782 39.2833 138.382 39.3C137.982 39.3 137.582 39.3083 137.182 39.325C136.799 39.325 136.507 39.325 136.307 39.325H129.307ZM142.927 18.45C142.827 17.95 142.761 17.4583 142.727 16.975C142.694 16.4917 142.677 16.0583 142.677 15.675C142.677 15.275 142.694 14.8333 142.727 14.35C142.761 13.85 142.827 13.35 142.927 12.85H166.827C166.944 13.2167 167.027 13.6333 167.077 14.1C167.144 14.5667 167.177 15.0167 167.177 15.45C167.177 16.55 166.886 17.325 166.302 17.775C165.719 18.225 164.811 18.45 163.577 18.45H161.227C160.877 18.45 160.377 18.4417 159.727 18.425C159.094 18.4083 158.586 18.4 158.202 18.4H151.502C151.152 18.4 150.644 18.4083 149.977 18.425C149.327 18.4417 148.827 18.45 148.477 18.45H142.927ZM151.502 22.1C151.502 21.4167 151.502 20.8083 151.502 20.275C151.519 19.725 151.527 19.1 151.527 18.4V15.625H158.177V18.4C158.177 19.1 158.177 19.725 158.177 20.275C158.194 20.8083 158.202 21.4167 158.202 22.1V47C157.652 47.1 157.077 47.1583 156.477 47.175C155.877 47.2083 155.344 47.225 154.877 47.225C154.377 47.225 153.827 47.2083 153.227 47.175C152.627 47.1583 152.052 47.1 151.502 47V22.1ZM193.613 25.575C193.646 24.2583 193.479 22.9833 193.113 21.75C192.763 20.5 192.129 19.4833 191.213 18.7C190.313 17.9 189.038 17.5 187.388 17.5C185.021 17.5 183.279 18.575 182.163 20.725C181.046 22.875 180.488 26 180.488 30.1C180.488 33.95 181.146 36.875 182.463 38.875C183.796 40.8583 185.654 41.85 188.038 41.85C189.688 41.85 191.221 41.5 192.638 40.8C194.071 40.1 195.438 39.2333 196.738 38.2C197.421 38.65 198.079 39.2917 198.713 40.125C199.346 40.9417 199.746 41.7417 199.913 42.525C198.979 43.4583 197.829 44.3167 196.463 45.1C195.096 45.8833 193.596 46.5083 191.963 46.975C190.329 47.4417 188.621 47.675 186.838 47.675C184.321 47.675 182.204 47.175 180.488 46.175C178.771 45.175 177.396 43.8333 176.363 42.15C175.329 40.45 174.579 38.5583 174.113 36.475C173.663 34.375 173.438 32.2417 173.438 30.075C173.438 25.8917 174.088 22.4833 175.388 19.85C176.688 17.2 178.404 15.25 180.538 14C182.688 12.75 185.046 12.125 187.613 12.125C190.146 12.125 192.346 12.5917 194.213 13.525C196.079 14.4417 197.521 15.6667 198.538 17.2C199.554 18.7167 200.063 20.3917 200.063 22.225C200.063 23.475 199.738 24.4083 199.088 25.025C198.454 25.6417 197.504 25.95 196.238 25.95C195.754 25.95 195.304 25.9167 194.888 25.85C194.488 25.7833 194.063 25.6917 193.613 25.575ZM210.01 12.85C210.526 12.7667 211.16 12.7083 211.91 12.675C212.676 12.6417 213.335 12.625 213.885 12.625C214.401 12.625 215.043 12.6417 215.81 12.675C216.576 12.7083 217.21 12.775 217.71 12.875L228.685 46.575C228.218 46.8417 227.626 47.0417 226.91 47.175C226.193 47.3083 225.501 47.375 224.835 47.375C223.768 47.375 222.935 47.1333 222.335 46.65C221.751 46.1667 221.251 45.2167 220.835 43.8L216.31 28.85C215.893 27.4167 215.435 25.8167 214.935 24.05C214.451 22.2833 214.018 20.65 213.635 19.15H213.335C213.168 19.9833 212.951 20.9083 212.685 21.925C212.435 22.9417 212.168 23.95 211.885 24.95C211.618 25.9333 211.376 26.8083 211.16 27.575L205.185 47.05C204.768 47.15 204.318 47.2083 203.835 47.225C203.351 47.2583 202.843 47.275 202.31 47.275C201.776 47.275 201.201 47.2417 200.585 47.175C199.968 47.1083 199.46 47.0083 199.06 46.875L198.835 46.5L210.01 12.85ZM209.985 39.325C209.785 39.325 209.485 39.325 209.085 39.325C208.701 39.3083 208.318 39.3 207.935 39.3C207.551 39.2833 207.26 39.275 207.06 39.275H203.685L205.735 33.975H208.71C208.91 33.975 209.185 33.975 209.535 33.975C209.885 33.9583 210.243 33.95 210.61 33.95C210.976 33.9333 211.251 33.925 211.435 33.925H215.735C215.951 33.925 216.235 33.9333 216.585 33.95C216.935 33.95 217.293 33.9583 217.66 33.975C218.026 33.975 218.31 33.975 218.51 33.975H221.56L223.31 39.275H219.96C219.76 39.275 219.46 39.2833 219.06 39.3C218.66 39.3 218.26 39.3083 217.86 39.325C217.476 39.325 217.185 39.325 216.985 39.325H209.985ZM253.21 24.125C253.21 26.6417 252.701 28.7583 251.685 30.475C250.668 32.175 249.26 33.4667 247.46 34.35C245.676 35.2167 243.635 35.65 241.335 35.65H233.91V30.625C234.426 30.5917 235.16 30.5667 236.11 30.55C237.06 30.5167 237.993 30.4917 238.91 30.475C239.843 30.4583 240.51 30.45 240.91 30.45C242.393 30.45 243.526 30.1083 244.31 29.425C245.093 28.7417 245.618 27.9167 245.885 26.95C246.168 25.9667 246.31 25.025 246.31 24.125C246.31 23.225 246.168 22.2917 245.885 21.325C245.618 20.3417 245.093 19.5167 244.31 18.85C243.526 18.1667 242.393 17.825 240.91 17.825C240.31 17.825 239.651 17.825 238.935 17.825C238.235 17.8083 237.51 17.7917 236.76 17.775V47C236.21 47.1 235.626 47.1583 235.01 47.175C234.393 47.2083 233.851 47.225 233.385 47.225C232.951 47.225 232.41 47.2083 231.76 47.175C231.126 47.1583 230.551 47.1 230.035 47V13.125L230.385 12.775C232.385 12.7417 234.26 12.7083 236.01 12.675C237.776 12.6417 239.551 12.625 241.335 12.625C243.635 12.625 245.676 13.0417 247.46 13.875C249.243 14.7083 250.643 15.975 251.66 17.675C252.693 19.375 253.21 21.525 253.21 24.125ZM289.502 29.925C289.502 31.875 289.369 33.75 289.102 35.55C288.836 37.3333 288.311 39 287.527 40.55C286.761 42.1 285.594 43.4917 284.027 44.725C283.277 45.325 282.377 45.8167 281.327 46.2C280.277 46.5667 279.202 46.8333 278.102 47C277.002 47.1833 275.994 47.275 275.077 47.275C273.694 47.275 272.377 47.2667 271.127 47.25C269.877 47.2333 268.619 47.2083 267.352 47.175C266.086 47.1417 264.727 47.1083 263.277 47.075L262.927 46.725V13.125L263.277 12.775C264.711 12.725 266.061 12.6917 267.327 12.675C268.594 12.6417 269.852 12.625 271.102 12.625C272.369 12.625 273.694 12.625 275.077 12.625C275.994 12.625 277.002 12.7083 278.102 12.875C279.219 13.0417 280.302 13.3083 281.352 13.675C282.402 14.0417 283.294 14.525 284.027 15.125C285.577 16.3583 286.736 17.7583 287.502 19.325C288.286 20.875 288.811 22.55 289.077 24.35C289.361 26.1333 289.502 27.9917 289.502 29.925ZM282.577 29.925C282.577 28.5417 282.486 27.1417 282.302 25.725C282.119 24.3083 281.769 23.0167 281.252 21.85C280.752 20.6667 280.002 19.7167 279.002 19C278.019 18.2667 276.711 17.9 275.077 17.9C274.127 17.9 273.227 17.8917 272.377 17.875C271.544 17.8583 270.627 17.85 269.627 17.85V41.975C270.627 41.9583 271.544 41.9583 272.377 41.975C273.227 41.975 274.127 41.975 275.077 41.975C276.711 41.975 278.019 41.6167 279.002 40.9C280.002 40.1667 280.752 39.2083 281.252 38.025C281.769 36.825 282.119 35.5167 282.302 34.1C282.486 32.6833 282.577 31.2917 282.577 29.925ZM299.477 12.85C299.993 12.7667 300.627 12.7083 301.377 12.675C302.143 12.6417 302.802 12.625 303.352 12.625C303.868 12.625 304.51 12.6417 305.277 12.675C306.043 12.7083 306.677 12.775 307.177 12.875L318.152 46.575C317.685 46.8417 317.093 47.0417 316.377 47.175C315.66 47.3083 314.968 47.375 314.302 47.375C313.235 47.375 312.402 47.1333 311.802 46.65C311.218 46.1667 310.718 45.2167 310.302 43.8L305.777 28.85C305.36 27.4167 304.902 25.8167 304.402 24.05C303.918 22.2833 303.485 20.65 303.102 19.15H302.802C302.635 19.9833 302.418 20.9083 302.152 21.925C301.902 22.9417 301.635 23.95 301.352 24.95C301.085 25.9333 300.843 26.8083 300.627 27.575L294.652 47.05C294.235 47.15 293.785 47.2083 293.302 47.225C292.818 47.2583 292.31 47.275 291.777 47.275C291.243 47.275 290.668 47.2417 290.052 47.175C289.435 47.1083 288.927 47.0083 288.527 46.875L288.302 46.5L299.477 12.85ZM299.452 39.325C299.252 39.325 298.952 39.325 298.552 39.325C298.168 39.3083 297.785 39.3 297.402 39.3C297.018 39.2833 296.727 39.275 296.527 39.275H293.152L295.202 33.975H298.177C298.377 33.975 298.652 33.975 299.002 33.975C299.352 33.9583 299.71 33.95 300.077 33.95C300.443 33.9333 300.718 33.925 300.902 33.925H305.202C305.418 33.925 305.702 33.9333 306.052 33.95C306.402 33.95 306.76 33.9583 307.127 33.975C307.493 33.975 307.777 33.975 307.977 33.975H311.027L312.777 39.275H309.427C309.227 39.275 308.927 39.2833 308.527 39.3C308.127 39.3 307.727 39.3083 307.327 39.325C306.943 39.325 306.652 39.325 306.452 39.325H299.452ZM319.502 12.925C320.035 12.825 320.71 12.75 321.527 12.7C322.36 12.65 323.01 12.625 323.477 12.625C323.943 12.625 324.543 12.6417 325.277 12.675C326.01 12.6917 326.718 12.75 327.402 12.85L325.702 20.525L325.227 20.675C325.327 21.975 325.41 23.4333 325.477 25.05C325.56 26.65 325.627 28.2667 325.677 29.9C325.727 31.5167 325.752 32.9833 325.752 34.3V47C325.202 47.1 324.66 47.1583 324.127 47.175C323.593 47.2083 323.11 47.225 322.677 47.225C322.277 47.225 321.777 47.2083 321.177 47.175C320.593 47.1583 320.035 47.1 319.502 47V12.925ZM328.402 27.625C327.818 26.3583 327.268 25.125 326.752 23.925C326.252 22.725 325.802 21.6167 325.402 20.6L322.277 16.95L327.402 12.85L336.502 32.2C337.135 33.5833 337.727 34.925 338.277 36.225C338.827 37.5083 339.31 38.6417 339.727 39.625L343.102 43.225L337.627 47L328.402 27.625ZM345.602 12.875V46.925C345.252 46.9917 344.818 47.05 344.302 47.1C343.802 47.15 343.302 47.1833 342.802 47.2C342.318 47.2167 341.91 47.225 341.577 47.225C341.06 47.225 340.452 47.2083 339.752 47.175C339.052 47.1583 338.343 47.1 337.627 47L339.402 39.675L339.927 39.55C339.81 38.1 339.71 36.5333 339.627 34.85C339.543 33.1667 339.485 31.5333 339.452 29.95C339.418 28.3667 339.402 27 339.402 25.85V16.675C339.402 15.1917 339.685 14.1417 340.252 13.525C340.835 12.8917 341.785 12.575 343.102 12.575H345.252L345.602 12.875ZM375.775 15.775C375.675 16.7583 375.3 17.7083 374.65 18.625C374.017 19.525 373.367 20.2 372.7 20.65C371.484 19.8 370.125 19.1083 368.625 18.575C367.125 18.0417 365.634 17.775 364.15 17.775C362.417 17.775 360.884 18.1917 359.55 19.025C358.217 19.8583 357.167 21.1917 356.4 23.025C355.65 24.8417 355.275 27.2417 355.275 30.225C355.275 34.375 356.05 37.4333 357.6 39.4C359.15 41.35 361.409 42.325 364.375 42.325C366.075 42.325 367.625 42.15 369.025 41.8C370.425 41.45 371.542 41.1333 372.375 40.85L375.85 45.6C374.867 45.95 373.7 46.2833 372.35 46.6C371.017 46.9167 369.567 47.175 368 47.375C366.45 47.575 364.859 47.675 363.225 47.675C360.592 47.675 358.334 47.2417 356.45 46.375C354.584 45.5083 353.059 44.2917 351.875 42.725C350.692 41.1417 349.817 39.2833 349.25 37.15C348.684 35.0167 348.4 32.6833 348.4 30.15C348.4 27.05 348.825 24.3667 349.675 22.1C350.542 19.8333 351.709 17.9667 353.175 16.5C354.659 15.0333 356.317 13.95 358.15 13.25C360 12.5333 361.9 12.175 363.85 12.175C366.034 12.175 368.167 12.5 370.25 13.15C372.334 13.8 374.175 14.675 375.775 15.775ZM369.525 37.275C369.525 36.1083 369.559 34.9417 369.625 33.775C369.709 32.6083 369.875 31.55 370.125 30.6L375.85 32.525V45.6L369.525 45.7V37.275ZM371.3 28.3C373 28.3 374.184 28.6833 374.85 29.45C375.517 30.2167 375.85 31.2417 375.85 32.525V33.95H366.275C365.642 33.95 365.075 33.8667 364.575 33.7C364.092 33.5333 363.709 33.25 363.425 32.85C363.159 32.4333 363.025 31.85 363.025 31.1C363.025 30.6333 363.075 30.15 363.175 29.65C363.275 29.1333 363.392 28.6833 363.525 28.3H371.3Z" fill="#9810FA"/>
</svg>
