<svg width="61" height="61" viewBox="0 0 61 61" fill="none" xmlns="http://www.w3.org/2000/svg">
<g clip-path="url(#clip0_663_42)">
<path d="M0.635742 6.09863C5.90062 8.35194 10.9467 10.4807 15.959 12.665C20.9933 14.859 26.3532 16.6183 30.4375 20.5684C35.0688 16.1525 41.3176 14.1316 47.3037 11.4795C47.6165 14.1819 47.5442 13.2792 47.6182 14.0889C47.7703 16.1427 48.1347 18.3764 47.3711 20.0225C46.5956 21.6942 43.8243 21.8819 41.9561 22.749C37.1373 24.9856 34.702 28.2686 34.9785 33.0137C35.1164 35.3793 35.0003 37.7552 35.0381 40.126C35.125 45.5788 38.9446 49.1636 45.3105 49.6514C46.6138 49.7512 47.591 50.1104 48.6143 50.7852C51.5417 52.7155 54.5821 54.5207 57.5654 56.3896C58.1396 56.7494 58.8884 56.9832 59.0781 57.6602C58.881 57.9475 58.582 58.0286 58.2734 58.0244C52.7965 57.9493 47.298 58.4288 41.8555 57.4814C32.1544 55.7926 26.0234 49.45 26.001 41.0244C25.9931 38.0739 25.9935 35.1234 25.9912 32.1729C25.9885 28.6427 24.3622 25.8519 20.8398 23.9268C17.4174 22.0562 13.7202 20.6585 10.1572 19.1729C9.28187 19.8134 9.54624 20.4911 9.54492 21.085C9.52219 31.3067 9.49807 41.5285 9.54688 51.75C9.55322 53.0795 9.11646 54.0292 7.91992 54.8926C5.53678 56.6119 3.26555 58.4455 0.635742 60.4727V6.09863ZM60.6367 54.418C58.9784 54.2407 58.0778 53.3955 57.0586 52.79C51.5536 49.5197 51.569 49.5093 51.5752 43.8262C51.5833 36.4038 51.4491 28.9788 51.6279 21.5596C51.7383 16.9799 51.4825 12.4089 51.5518 7.83301C51.5685 6.72438 51.9266 5.93555 52.9844 5.28906C55.4342 3.79174 57.8385 2.23976 60.6367 0.472656V54.418Z" fill="white"/>
</g>
<defs>
<clipPath id="clip0_663_42">
<rect width="61" height="61" fill="white"/>
</clipPath>
</defs>
</svg>
